{"asset":{"version":"2.0","generator":"Blockbench 3.8.4 glTF exporter"},"scenes":[{"nodes":[0,1,2,3,4,5,6,7,8,9,10,11,12,13,14,15],"name":"blockbench_export"}],"scene":0,"nodes":[{"name":"3ea4512e-7989-6ae6-a721-3f7d48669086","mesh":0},{"name":"1652a4c1-c918-be5f-7674-ca9fe4ddbb63","mesh":1},{"name":"f9b7d767-adc0-97bf-dd77-0783060a80d3","mesh":2},{"name":"9318ab78-5e18-ec6d-3c79-9fa6844869e2","mesh":3},{"name":"bfbfd94d-68bf-d354-3ae2-5ce0a17b164a","mesh":4},{"name":"e6ed361b-d6d4-b3a5-8eea-7493eb860f36","mesh":5},{"name":"2a34b605-1deb-04c3-36db-1b8912dea7f7","mesh":6},{"name":"47dff91e-5017-f6d0-dd64-ec33f6253992","mesh":7},{"name":"9e606364-34ac-b0fc-e8d7-d3fc7c0191c3","mesh":8},{"name":"702e3a76-170a-e071-3e84-9ed84075e9f8","mesh":9},{"name":"3e73b58e-55f9-b105-a530-6afa83b5c0c9","mesh":10},{"name":"f9979b1a-2011-fc7d-0445-d8c0d4915ab2","mesh":11},{"name":"b978d23e-fed2-8950-222a-cd6dd7f4f8af","mesh":12},{"name":"1fb1fc57-24df-a50b-9485-2feff196ae8f","mesh":13},{"name":"cd54b9e6-2389-d35a-06c5-baa72fb16030","mesh":14},{"name":"32fde8d8-3fe5-71ef-349e-89c3d49bf597","mesh":15}],"bufferViews":[{"buffer":0,"byteOffset":0,"byteLength":360,"target":34962,"byteStride":12},{"buffer":0,"byteOffset":360,"byteLength":360,"target":34962,"byteStride":12},{"buffer":0,"byteOffset":720,"byteLength":240,"target":34962,"byteStride":8},{"buffer":0,"byteOffset":960,"byteLength":12,"target":34963},{"buffer":0,"byteOffset":972,"byteLength":12,"target":34963},{"buffer":0,"byteOffset":984,"byteLength":12,"target":34963},{"buffer":0,"byteOffset":996,"byteLength":12,"target":34963},{"buffer":0,"byteOffset":1008,"byteLength":12,"target":34963},{"buffer":0,"byteOffset":1020,"byteLength":360,"target":34962,"byteStride":12},{"buffer":0,"byteOffset":1380,"byteLength":360,"target":34962,"byteStride":12},{"buffer":0,"byteOffset":1740,"byteLength":240,"target":34962,"byteStride":8},{"buffer":0,"byteOffset":1980,"byteLength":12,"target":34963},{"buffer":0,"byteOffset":1992,"byteLength":12,"target":34963},{"buffer":0,"byteOffset":2004,"byteLength":12,"target":34963},{"buffer":0,"byteOffset":2016,"byteLength":12,"target":34963},{"buffer":0,"byteOffset":2028,"byteLength":12,"target":34963},{"buffer":0,"byteOffset":2040,"byteLength":144,"target":34962,"byteStride":12},{"buffer":0,"byteOffset":2184,"byteLength":144,"target":34962,"byteStride":12},{"buffer":0,"byteOffset":2328,"byteLength":96,"target":34962,"byteStride":8},{"buffer":0,"byteOffset":2424,"byteLength":12,"target":34963},{"buffer":0,"byteOffset":2436,"byteLength":12,"target":34963},{"buffer":0,"byteOffset":2448,"byteLength":144,"target":34962,"byteStride":12},{"buffer":0,"byteOffset":2592,"byteLength":144,"target":34962,"byteStride":12},{"buffer":0,"byteOffset":2736,"byteLength":96,"target":34962,"byteStride":8},{"buffer":0,"byteOffset":2832,"byteLength":12,"target":34963},{"buffer":0,"byteOffset":2844,"byteLength":12,"target":34963},{"buffer":0,"byteOffset":2856,"byteLength":288,"target":34962,"byteStride":12},{"buffer":0,"byteOffset":3144,"byteLength":288,"target":34962,"byteStride":12},{"buffer":0,"byteOffset":3432,"byteLength":192,"target":34962,"byteStride":8},{"buffer":0,"byteOffset":3624,"byteLength":12,"target":34963},{"buffer":0,"byteOffset":3636,"byteLength":12,"target":34963},{"buffer":0,"byteOffset":3648,"byteLength":12,"target":34963},{"buffer":0,"byteOffset":3660,"byteLength":12,"target":34963},{"buffer":0,"byteOffset":3672,"byteLength":288,"target":34962,"byteStride":12},{"buffer":0,"byteOffset":3960,"byteLength":288,"target":34962,"byteStride":12},{"buffer":0,"byteOffset":4248,"byteLength":192,"target":34962,"byteStride":8},{"buffer":0,"byteOffset":4440,"byteLength":12,"target":34963},{"buffer":0,"byteOffset":4452,"byteLength":12,"target":34963},{"buffer":0,"byteOffset":4464,"byteLength":12,"target":34963},{"buffer":0,"byteOffset":4476,"byteLength":12,"target":34963},{"buffer":0,"byteOffset":4488,"byteLength":360,"target":34962,"byteStride":12},{"buffer":0,"byteOffset":4848,"byteLength":360,"target":34962,"byteStride":12},{"buffer":0,"byteOffset":5208,"byteLength":240,"target":34962,"byteStride":8},{"buffer":0,"byteOffset":5448,"byteLength":12,"target":34963},{"buffer":0,"byteOffset":5460,"byteLength":12,"target":34963},{"buffer":0,"byteOffset":5472,"byteLength":12,"target":34963},{"buffer":0,"byteOffset":5484,"byteLength":12,"target":34963},{"buffer":0,"byteOffset":5496,"byteLength":12,"target":34963},{"buffer":0,"byteOffset":5508,"byteLength":360,"target":34962,"byteStride":12},{"buffer":0,"byteOffset":5868,"byteLength":360,"target":34962,"byteStride":12},{"buffer":0,"byteOffset":6228,"byteLength":240,"target":34962,"byteStride":8},{"buffer":0,"byteOffset":6468,"byteLength":12,"target":34963},{"buffer":0,"byteOffset":6480,"byteLength":12,"target":34963},{"buffer":0,"byteOffset":6492,"byteLength":12,"target":34963},{"buffer":0,"byteOffset":6504,"byteLength":12,"target":34963},{"buffer":0,"byteOffset":6516,"byteLength":12,"target":34963},{"buffer":0,"byteOffset":6528,"byteLength":432,"target":34962,"byteStride":12},{"buffer":0,"byteOffset":6960,"byteLength":432,"target":34962,"byteStride":12},{"buffer":0,"byteOffset":7392,"byteLength":288,"target":34962,"byteStride":8},{"buffer":0,"byteOffset":7680,"byteLength":432,"target":34962,"byteStride":12},{"buffer":0,"byteOffset":8112,"byteLength":432,"target":34962,"byteStride":12},{"buffer":0,"byteOffset":8544,"byteLength":288,"target":34962,"byteStride":8},{"buffer":0,"byteOffset":8832,"byteLength":288,"target":34962,"byteStride":12},{"buffer":0,"byteOffset":9120,"byteLength":288,"target":34962,"byteStride":12},{"buffer":0,"byteOffset":9408,"byteLength":192,"target":34962,"byteStride":8},{"buffer":0,"byteOffset":9600,"byteLength":12,"target":34963},{"buffer":0,"byteOffset":9612,"byteLength":12,"target":34963},{"buffer":0,"byteOffset":9624,"byteLength":12,"target":34963},{"buffer":0,"byteOffset":9636,"byteLength":12,"target":34963},{"buffer":0,"byteOffset":9648,"byteLength":288,"target":34962,"byteStride":12},{"buffer":0,"byteOffset":9936,"byteLength":288,"target":34962,"byteStride":12},{"buffer":0,"byteOffset":10224,"byteLength":192,"target":34962,"byteStride":8},{"buffer":0,"byteOffset":10416,"byteLength":12,"target":34963},{"buffer":0,"byteOffset":10428,"byteLength":12,"target":34963},{"buffer":0,"byteOffset":10440,"byteLength":12,"target":34963},{"buffer":0,"byteOffset":10452,"byteLength":12,"target":34963},{"buffer":0,"byteOffset":10464,"byteLength":288,"target":34962,"byteStride":12},{"buffer":0,"byteOffset":10752,"byteLength":288,"target":34962,"byteStride":12},{"buffer":0,"byteOffset":11040,"byteLength":192,"target":34962,"byteStride":8},{"buffer":0,"byteOffset":11232,"byteLength":12,"target":34963},{"buffer":0,"byteOffset":11244,"byteLength":12,"target":34963},{"buffer":0,"byteOffset":11256,"byteLength":12,"target":34963},{"buffer":0,"byteOffset":11268,"byteLength":12,"target":34963},{"buffer":0,"byteOffset":11280,"byteLength":288,"target":34962,"byteStride":12},{"buffer":0,"byteOffset":11568,"byteLength":288,"target":34962,"byteStride":12},{"buffer":0,"byteOffset":11856,"byteLength":192,"target":34962,"byteStride":8},{"buffer":0,"byteOffset":12048,"byteLength":12,"target":34963},{"buffer":0,"byteOffset":12060,"byteLength":12,"target":34963},{"buffer":0,"byteOffset":12072,"byteLength":12,"target":34963},{"buffer":0,"byteOffset":12084,"byteLength":12,"target":34963},{"buffer":0,"byteOffset":12096,"byteLength":288,"target":34962,"byteStride":12},{"buffer":0,"byteOffset":12384,"byteLength":288,"target":34962,"byteStride":12},{"buffer":0,"byteOffset":12672,"byteLength":192,"target":34962,"byteStride":8},{"buffer":0,"byteOffset":12864,"byteLength":12,"target":34963},{"buffer":0,"byteOffset":12876,"byteLength":12,"target":34963},{"buffer":0,"byteOffset":12888,"byteLength":12,"target":34963},{"buffer":0,"byteOffset":12900,"byteLength":12,"target":34963},{"buffer":0,"byteOffset":12912,"byteLength":432,"target":34962,"byteStride":12},{"buffer":0,"byteOffset":13344,"byteLength":432,"target":34962,"byteStride":12},{"buffer":0,"byteOffset":13776,"byteLength":288,"target":34962,"byteStride":8}],"buffers":[{"byteLength":14064,"uri":"data:application/octet-stream;base64,"}],"accessors":[{"bufferView":0,"componentType":5126,"count":30,"max":[-0.5,0.875,1],"min":[-0.625,0,0.875],"type":"VEC3"},{"bufferView":1,"componentType":5126,"count":30,"max":[1,0,1],"min":[-1,-1,-1],"type":"VEC3"},{"bufferView":2,"componentType":5126,"count":30,"max":[0.9359375238418579,0.4359374940395355],"min":[0.7515624761581421,0.0015625000232830644],"type":"VEC2"},{"bufferView":3,"componentType":5123,"count":6,"max":[5],"min":[0],"type":"SCALAR"},{"bufferView":4,"componentType":5123,"count":6,"max":[11],"min":[6],"type":"SCALAR"},{"bufferView":5,"componentType":5123,"count":6,"max":[17],"min":[12],"type":"SCALAR"},{"bufferView":6,"componentType":5123,"count":6,"max":[23],"min":[18],"type":"SCALAR"},{"bufferView":7,"componentType":5123,"count":6,"max":[29],"min":[24],"type":"SCALAR"},{"bufferView":8,"componentType":5126,"count":30,"max":[1.625,0.875,1],"min":[1.5,0,0.875],"type":"VEC3"},{"bufferView":9,"componentType":5126,"count":30,"max":[1,0,1],"min":[-1,-1,-1],"type":"VEC3"},{"bufferView":10,"componentType":5126,"count":30,"max":[0.9359375238418579,0.4359374940395355],"min":[0.7515624761581421,0.0015625000232830644],"type":"VEC2"},{"bufferView":11,"componentType":5123,"count":6,"max":[5],"min":[0],"type":"SCALAR"},{"bufferView":12,"componentType":5123,"count":6,"max":[11],"min":[6],"type":"SCALAR"},{"bufferView":13,"componentType":5123,"count":6,"max":[17],"min":[12],"type":"SCALAR"},{"bufferView":14,"componentType":5123,"count":6,"max":[23],"min":[18],"type":"SCALAR"},{"bufferView":15,"componentType":5123,"count":6,"max":[29],"min":[24],"type":"SCALAR"},{"bufferView":16,"componentType":5126,"count":12,"max":[1.5625624656677246,0.875,0.875],"min":[1.5625,0.625,0.25],"type":"VEC3"},{"bufferView":17,"componentType":5126,"count":12,"max":[1,0,0],"min":[-1,0,0],"type":"VEC3"},{"bufferView":18,"componentType":5126,"count":12,"max":[0.3109374940395355,0.3109374940395355],"min":[0.0015625000232830644,0.18906250596046448],"type":"VEC2"},{"bufferView":19,"componentType":5123,"count":6,"max":[5],"min":[0],"type":"SCALAR"},{"bufferView":20,"componentType":5123,"count":6,"max":[11],"min":[6],"type":"SCALAR"},{"bufferView":21,"componentType":5126,"count":12,"max":[-0.5624374747276306,0.875,0.875],"min":[-0.5625,0.625,0.25],"type":"VEC3"},{"bufferView":22,"componentType":5126,"count":12,"max":[1,0,0],"min":[-1,0,0],"type":"VEC3"},{"bufferView":23,"componentType":5126,"count":12,"max":[0.3109374940395355,0.3109374940395355],"min":[0.0015625000232830644,0.18906250596046448],"type":"VEC2"},{"bufferView":24,"componentType":5123,"count":6,"max":[5],"min":[0],"type":"SCALAR"},{"bufferView":25,"componentType":5123,"count":6,"max":[11],"min":[6],"type":"SCALAR"},{"bufferView":26,"componentType":5126,"count":24,"max":[1.625,0.625,0.875],"min":[1.5,0.5,0.25],"type":"VEC3"},{"bufferView":27,"componentType":5126,"count":24,"max":[1,1,0],"min":[-1,-1,0],"type":"VEC3"},{"bufferView":28,"componentType":5126,"count":24,"max":[0.8109375238418579,0.3734374940395355],"min":[0.0015625000232830644,0.06406249850988388],"type":"VEC2"},{"bufferView":29,"componentType":5123,"count":6,"max":[5],"min":[0],"type":"SCALAR"},{"bufferView":30,"componentType":5123,"count":6,"max":[11],"min":[6],"type":"SCALAR"},{"bufferView":31,"componentType":5123,"count":6,"max":[17],"min":[12],"type":"SCALAR"},{"bufferView":32,"componentType":5123,"count":6,"max":[23],"min":[18],"type":"SCALAR"},{"bufferView":33,"componentType":5126,"count":24,"max":[-0.5,0.625,0.875],"min":[-0.625,0.5,0.25],"type":"VEC3"},{"bufferView":34,"componentType":5126,"count":24,"max":[1,1,0],"min":[-1,-1,0],"type":"VEC3"},{"bufferView":35,"componentType":5126,"count":24,"max":[0.8109375238418579,0.3734374940395355],"min":[0.0015625000232830644,0.06406249850988388],"type":"VEC2"},{"bufferView":36,"componentType":5123,"count":6,"max":[5],"min":[0],"type":"SCALAR"},{"bufferView":37,"componentType":5123,"count":6,"max":[11],"min":[6],"type":"SCALAR"},{"bufferView":38,"componentType":5123,"count":6,"max":[17],"min":[12],"type":"SCALAR"},{"bufferView":39,"componentType":5123,"count":6,"max":[23],"min":[18],"type":"SCALAR"},{"bufferView":40,"componentType":5126,"count":30,"max":[-0.5,0.9375,1.0625],"min":[-0.625,0.875,0.25],"type":"VEC3"},{"bufferView":41,"componentType":5126,"count":30,"max":[1,1,1],"min":[-1,-1,0],"type":"VEC3"},{"bufferView":42,"componentType":5126,"count":30,"max":[0.9984375238418579,0.4359374940395355],"min":[0.0015625000232830644,0.0015625000232830644],"type":"VEC2"},{"bufferView":43,"componentType":5123,"count":6,"max":[5],"min":[0],"type":"SCALAR"},{"bufferView":44,"componentType":5123,"count":6,"max":[11],"min":[6],"type":"SCALAR"},{"bufferView":45,"componentType":5123,"count":6,"max":[17],"min":[12],"type":"SCALAR"},{"bufferView":46,"componentType":5123,"count":6,"max":[23],"min":[18],"type":"SCALAR"},{"bufferView":47,"componentType":5123,"count":6,"max":[29],"min":[24],"type":"SCALAR"},{"bufferView":48,"componentType":5126,"count":30,"max":[1.625,0.9375,1.0625],"min":[1.5,0.875,0.25],"type":"VEC3"},{"bufferView":49,"componentType":5126,"count":30,"max":[1,1,1],"min":[-1,-1,0],"type":"VEC3"},{"bufferView":50,"componentType":5126,"count":30,"max":[0.9984375238418579,0.4359374940395355],"min":[0.0015625000232830644,0.0015625000232830644],"type":"VEC2"},{"bufferView":51,"componentType":5123,"count":6,"max":[5],"min":[0],"type":"SCALAR"},{"bufferView":52,"componentType":5123,"count":6,"max":[11],"min":[6],"type":"SCALAR"},{"bufferView":53,"componentType":5123,"count":6,"max":[17],"min":[12],"type":"SCALAR"},{"bufferView":54,"componentType":5123,"count":6,"max":[23],"min":[18],"type":"SCALAR"},{"bufferView":55,"componentType":5123,"count":6,"max":[29],"min":[24],"type":"SCALAR"},{"bufferView":56,"componentType":5126,"count":36,"max":[1.65625,1.4375,0.25],"min":[1.46875,0,0.0625],"type":"VEC3"},{"bufferView":57,"componentType":5126,"count":36,"max":[1,1,1],"min":[-1,-1,-1],"type":"VEC3"},{"bufferView":58,"componentType":5126,"count":36,"max":[0.7484375238418579,0.3734374940395355],"min":[0.0015625000232830644,0.0015625000232830644],"type":"VEC2"},{"bufferView":59,"componentType":5126,"count":36,"max":[-0.46875,1.4375,0.25],"min":[-0.65625,0,0.0625],"type":"VEC3"},{"bufferView":60,"componentType":5126,"count":36,"max":[1,1,1],"min":[-1,-1,-1],"type":"VEC3"},{"bufferView":61,"componentType":5126,"count":36,"max":[0.7484375238418579,0.3734374940395355],"min":[0.0015625000232830644,0.0015625000232830644],"type":"VEC2"},{"bufferView":62,"componentType":5126,"count":24,"max":[1.5,1.375,0.1875],"min":[-0.5,1.1875,0.125],"type":"VEC3"},{"bufferView":63,"componentType":5126,"count":24,"max":[0,1,1],"min":[0,-1,-1],"type":"VEC3"},{"bufferView":64,"componentType":5126,"count":24,"max":[0.9984375238418579,0.9984375238418579],"min":[0.0015625000232830644,0.9078124761581421],"type":"VEC2"},{"bufferView":65,"componentType":5123,"count":6,"max":[5],"min":[0],"type":"SCALAR"},{"bufferView":66,"componentType":5123,"count":6,"max":[11],"min":[6],"type":"SCALAR"},{"bufferView":67,"componentType":5123,"count":6,"max":[17],"min":[12],"type":"SCALAR"},{"bufferView":68,"componentType":5123,"count":6,"max":[23],"min":[18],"type":"SCALAR"},{"bufferView":69,"componentType":5126,"count":24,"max":[1.5,1.125,0.1875],"min":[-0.5,0.9375,0.125],"type":"VEC3"},{"bufferView":70,"componentType":5126,"count":24,"max":[0,1,1],"min":[0,-1,-1],"type":"VEC3"},{"bufferView":71,"componentType":5126,"count":24,"max":[0.9984375238418579,0.9046875238418579],"min":[0.0015625000232830644,0.8140624761581421],"type":"VEC2"},{"bufferView":72,"componentType":5123,"count":6,"max":[5],"min":[0],"type":"SCALAR"},{"bufferView":73,"componentType":5123,"count":6,"max":[11],"min":[6],"type":"SCALAR"},{"bufferView":74,"componentType":5123,"count":6,"max":[17],"min":[12],"type":"SCALAR"},{"bufferView":75,"componentType":5123,"count":6,"max":[23],"min":[18],"type":"SCALAR"},{"bufferView":76,"componentType":5126,"count":24,"max":[1.5,0.875,0.1875],"min":[-0.5,0.625,0.125],"type":"VEC3"},{"bufferView":77,"componentType":5126,"count":24,"max":[0,1,1],"min":[0,-1,-1],"type":"VEC3"},{"bufferView":78,"componentType":5126,"count":24,"max":[0.9984375238418579,0.8109375238418579],"min":[0.0015625000232830644,0.6890624761581421],"type":"VEC2"},{"bufferView":79,"componentType":5123,"count":6,"max":[5],"min":[0],"type":"SCALAR"},{"bufferView":80,"componentType":5123,"count":6,"max":[11],"min":[6],"type":"SCALAR"},{"bufferView":81,"componentType":5123,"count":6,"max":[17],"min":[12],"type":"SCALAR"},{"bufferView":82,"componentType":5123,"count":6,"max":[23],"min":[18],"type":"SCALAR"},{"bufferView":83,"componentType":5126,"count":24,"max":[1.5,0.5625,0.5],"min":[-0.5,0.5,0.25],"type":"VEC3"},{"bufferView":84,"componentType":5126,"count":24,"max":[0,1,1],"min":[0,-1,-1],"type":"VEC3"},{"bufferView":85,"componentType":5126,"count":24,"max":[0.9984375238418579,0.7171875238418579],"min":[0.0015625000232830644,0.5640624761581421],"type":"VEC2"},{"bufferView":86,"componentType":5123,"count":6,"max":[5],"min":[0],"type":"SCALAR"},{"bufferView":87,"componentType":5123,"count":6,"max":[11],"min":[6],"type":"SCALAR"},{"bufferView":88,"componentType":5123,"count":6,"max":[17],"min":[12],"type":"SCALAR"},{"bufferView":89,"componentType":5123,"count":6,"max":[23],"min":[18],"type":"SCALAR"},{"bufferView":90,"componentType":5126,"count":24,"max":[1.5,0.5625,0.75],"min":[-0.5,0.5,0.5625],"type":"VEC3"},{"bufferView":91,"componentType":5126,"count":24,"max":[0,1,1],"min":[0,-1,-1],"type":"VEC3"},{"bufferView":92,"componentType":5126,"count":24,"max":[0.9984375238418579,0.9359375238418579],"min":[0.0015625000232830644,0.4390625059604645],"type":"VEC2"},{"bufferView":93,"componentType":5123,"count":6,"max":[5],"min":[0],"type":"SCALAR"},{"bufferView":94,"componentType":5123,"count":6,"max":[11],"min":[6],"type":"SCALAR"},{"bufferView":95,"componentType":5123,"count":6,"max":[17],"min":[12],"type":"SCALAR"},{"bufferView":96,"componentType":5123,"count":6,"max":[23],"min":[18],"type":"SCALAR"},{"bufferView":97,"componentType":5126,"count":36,"max":[1.5,0.5625,1.0625],"min":[-0.5,0.4375,0.8125],"type":"VEC3"},{"bufferView":98,"componentType":5126,"count":36,"max":[1,1,1],"min":[-1,-1,-1],"type":"VEC3"},{"bufferView":99,"componentType":5126,"count":36,"max":[0.9984375238418579,0.6859375238418579],"min":[0.0015625000232830644,0.5015624761581421],"type":"VEC2"}],"materials":[{"pbrMetallicRoughness":{"metallicFactor":0,"roughnessFactor":1,"baseColorTexture":{"index":0}},"alphaMode":"MASK","alphaCutoff":0.05}],"textures":[{"sampler":0,"source":0}],"samplers":[{"magFilter":9728,"minFilter":9728,"wrapS":33071,"wrapT":33071}],"images":[{"mimeType":"image/png","uri":"data:image/png;base64,"}],"meshes":[{"primitives":[{"mode":4,"attributes":{"POSITION":0,"NORMAL":1,"TEXCOORD_0":2},"indices":3,"material":0},{"mode":4,"attributes":{"POSITION":0,"NORMAL":1,"TEXCOORD_0":2},"indices":4,"material":0},{"mode":4,"attributes":{"POSITION":0,"NORMAL":1,"TEXCOORD_0":2},"indices":5,"material":0},{"mode":4,"attributes":{"POSITION":0,"NORMAL":1,"TEXCOORD_0":2},"indices":6,"material":0},{"mode":4,"attributes":{"POSITION":0,"NORMAL":1,"TEXCOORD_0":2},"indices":7,"material":0}]},{"primitives":[{"mode":4,"attributes":{"POSITION":8,"NORMAL":9,"TEXCOORD_0":10},"indices":11,"material":0},{"mode":4,"attributes":{"POSITION":8,"NORMAL":9,"TEXCOORD_0":10},"indices":12,"material":0},{"mode":4,"attributes":{"POSITION":8,"NORMAL":9,"TEXCOORD_0":10},"indices":13,"material":0},{"mode":4,"attributes":{"POSITION":8,"NORMAL":9,"TEXCOORD_0":10},"indices":14,"material":0},{"mode":4,"attributes":{"POSITION":8,"NORMAL":9,"TEXCOORD_0":10},"indices":15,"material":0}]},{"primitives":[{"mode":4,"attributes":{"POSITION":16,"NORMAL":17,"TEXCOORD_0":18},"indices":19,"material":0},{"mode":4,"attributes":{"POSITION":16,"NORMAL":17,"TEXCOORD_0":18},"indices":20,"material":0}]},{"primitives":[{"mode":4,"attributes":{"POSITION":21,"NORMAL":22,"TEXCOORD_0":23},"indices":24,"material":0},{"mode":4,"attributes":{"POSITION":21,"NORMAL":22,"TEXCOORD_0":23},"indices":25,"material":0}]},{"primitives":[{"mode":4,"attributes":{"POSITION":26,"NORMAL":27,"TEXCOORD_0":28},"indices":29,"material":0},{"mode":4,"attributes":{"POSITION":26,"NORMAL":27,"TEXCOORD_0":28},"indices":30,"material":0},{"mode":4,"attributes":{"POSITION":26,"NORMAL":27,"TEXCOORD_0":28},"indices":31,"material":0},{"mode":4,"attributes":{"POSITION":26,"NORMAL":27,"TEXCOORD_0":28},"indices":32,"material":0}]},{"primitives":[{"mode":4,"attributes":{"POSITION":33,"NORMAL":34,"TEXCOORD_0":35},"indices":36,"material":0},{"mode":4,"attributes":{"POSITION":33,"NORMAL":34,"TEXCOORD_0":35},"indices":37,"material":0},{"mode":4,"attributes":{"POSITION":33,"NORMAL":34,"TEXCOORD_0":35},"indices":38,"material":0},{"mode":4,"attributes":{"POSITION":33,"NORMAL":34,"TEXCOORD_0":35},"indices":39,"material":0}]},{"primitives":[{"mode":4,"attributes":{"POSITION":40,"NORMAL":41,"TEXCOORD_0":42},"indices":43,"material":0},{"mode":4,"attributes":{"POSITION":40,"NORMAL":41,"TEXCOORD_0":42},"indices":44,"material":0},{"mode":4,"attributes":{"POSITION":40,"NORMAL":41,"TEXCOORD_0":42},"indices":45,"material":0},{"mode":4,"attributes":{"POSITION":40,"NORMAL":41,"TEXCOORD_0":42},"indices":46,"material":0},{"mode":4,"attributes":{"POSITION":40,"NORMAL":41,"TEXCOORD_0":42},"indices":47,"material":0}]},{"primitives":[{"mode":4,"attributes":{"POSITION":48,"NORMAL":49,"TEXCOORD_0":50},"indices":51,"material":0},{"mode":4,"attributes":{"POSITION":48,"NORMAL":49,"TEXCOORD_0":50},"indices":52,"material":0},{"mode":4,"attributes":{"POSITION":48,"NORMAL":49,"TEXCOORD_0":50},"indices":53,"material":0},{"mode":4,"attributes":{"POSITION":48,"NORMAL":49,"TEXCOORD_0":50},"indices":54,"material":0},{"mode":4,"attributes":{"POSITION":48,"NORMAL":49,"TEXCOORD_0":50},"indices":55,"material":0}]},{"primitives":[{"mode":4,"attributes":{"POSITION":56,"NORMAL":57,"TEXCOORD_0":58},"material":0}]},{"primitives":[{"mode":4,"attributes":{"POSITION":59,"NORMAL":60,"TEXCOORD_0":61},"material":0}]},{"primitives":[{"mode":4,"attributes":{"POSITION":62,"NORMAL":63,"TEXCOORD_0":64},"indices":65,"material":0},{"mode":4,"attributes":{"POSITION":62,"NORMAL":63,"TEXCOORD_0":64},"indices":66,"material":0},{"mode":4,"attributes":{"POSITION":62,"NORMAL":63,"TEXCOORD_0":64},"indices":67,"material":0},{"mode":4,"attributes":{"POSITION":62,"NORMAL":63,"TEXCOORD_0":64},"indices":68,"material":0}]},{"primitives":[{"mode":4,"attributes":{"POSITION":69,"NORMAL":70,"TEXCOORD_0":71},"indices":72,"material":0},{"mode":4,"attributes":{"POSITION":69,"NORMAL":70,"TEXCOORD_0":71},"indices":73,"material":0},{"mode":4,"attributes":{"POSITION":69,"NORMAL":70,"TEXCOORD_0":71},"indices":74,"material":0},{"mode":4,"attributes":{"POSITION":69,"NORMAL":70,"TEXCOORD_0":71},"indices":75,"material":0}]},{"primitives":[{"mode":4,"attributes":{"POSITION":76,"NORMAL":77,"TEXCOORD_0":78},"indices":79,"material":0},{"mode":4,"attributes":{"POSITION":76,"NORMAL":77,"TEXCOORD_0":78},"indices":80,"material":0},{"mode":4,"attributes":{"POSITION":76,"NORMAL":77,"TEXCOORD_0":78},"indices":81,"material":0},{"mode":4,"attributes":{"POSITION":76,"NORMAL":77,"TEXCOORD_0":78},"indices":82,"material":0}]},{"primitives":[{"mode":4,"attributes":{"POSITION":83,"NORMAL":84,"TEXCOORD_0":85},"indices":86,"material":0},{"mode":4,"attributes":{"POSITION":83,"NORMAL":84,"TEXCOORD_0":85},"indices":87,"material":0},{"mode":4,"attributes":{"POSITION":83,"NORMAL":84,"TEXCOORD_0":85},"indices":88,"material":0},{"mode":4,"attributes":{"POSITION":83,"NORMAL":84,"TEXCOORD_0":85},"indices":89,"material":0}]},{"primitives":[{"mode":4,"attributes":{"POSITION":90,"NORMAL":91,"TEXCOORD_0":92},"indices":93,"material":0},{"mode":4,"attributes":{"POSITION":90,"NORMAL":91,"TEXCOORD_0":92},"indices":94,"material":0},{"mode":4,"attributes":{"POSITION":90,"NORMAL":91,"TEXCOORD_0":92},"indices":95,"material":0},{"mode":4,"attributes":{"POSITION":90,"NORMAL":91,"TEXCOORD_0":92},"indices":96,"material":0}]},{"primitives":[{"mode":4,"attributes":{"POSITION":97,"NORMAL":98,"TEXCOORD_0":99},"material":0}]}]}